<svg width="26" height="26" viewBox="0 0 26 26" fill="none" xmlns="http://www.w3.org/2000/svg">
<path d="M11.5492 5.63159C10.7721 5.63159 10.0026 5.77938 9.2846 6.06652C8.56665 6.35367 7.9143 6.77454 7.36481 7.30511C6.25505 8.37665 5.63159 9.82996 5.63159 11.3453C5.63159 13.8708 7.32993 16.0135 9.67921 16.7734C9.97509 16.8191 10.0698 16.642 10.0698 16.4877V15.5221C8.4306 15.8649 8.08146 14.7564 8.08146 14.7564C7.80926 14.0937 7.42461 13.9165 7.42461 13.9165C6.88612 13.5623 7.46604 13.5737 7.46604 13.5737C8.05779 13.6137 8.37142 14.1622 8.37142 14.1622C8.88625 15.0307 9.75614 14.7736 10.0934 14.6365C10.1467 14.2651 10.3006 14.0137 10.4662 13.8708C9.15254 13.728 7.77375 13.2366 7.77375 11.0597C7.77375 10.4254 7.99862 9.9169 8.38326 9.51123C8.32408 9.36838 8.11697 8.77415 8.44244 8.0028C8.44244 8.0028 8.93951 7.84853 10.0698 8.5856C10.5373 8.4599 11.0462 8.39705 11.5492 8.39705C12.0522 8.39705 12.5611 8.4599 13.0285 8.5856C14.1588 7.84853 14.6559 8.0028 14.6559 8.0028C14.9813 8.77415 14.7742 9.36838 14.7151 9.51123C15.0997 9.9169 15.3246 10.4254 15.3246 11.0597C15.3246 13.2423 13.9399 13.7223 12.6202 13.8651C12.8333 14.0422 13.0285 14.3908 13.0285 14.9221V16.4877C13.0285 16.642 13.1232 16.8248 13.425 16.7734C15.7743 16.0078 17.4667 13.8708 17.4667 11.3453C17.4667 10.595 17.3137 9.85201 17.0163 9.15878C16.7189 8.46556 16.283 7.83568 15.7335 7.30511C15.184 6.77454 14.5317 6.35367 13.8137 6.06652C13.0958 5.77938 12.3263 5.63159 11.5492 5.63159V5.63159Z" fill="black"/>
<path d="M25 25L19.3335 19.3234L25 25ZM22.4737 11.7368C22.4737 14.5844 21.3425 17.3154 19.3289 19.3289C17.3154 21.3425 14.5844 22.4737 11.7368 22.4737C8.88925 22.4737 6.1583 21.3425 4.14475 19.3289C2.1312 17.3154 1 14.5844 1 11.7368C1 8.88925 2.1312 6.1583 4.14475 4.14475C6.1583 2.1312 8.88925 1 11.7368 1C14.5844 1 17.3154 2.1312 19.3289 4.14475C21.3425 6.1583 22.4737 8.88925 22.4737 11.7368V11.7368Z" stroke="black" stroke-width="2" stroke-linecap="round"/>
</svg>
